<svg xmlns="http://www.w3.org/2000/svg" viewBox="0 0 720 180" role="img" aria-label="QuickServe Cashloan">
  <defs>
    <style>
      .dark{fill:#053437}
      .green{fill:#12b84f}
      .muted{fill:#243437}
      .line{stroke:#053437;stroke-width:7;stroke-linecap:round}
    </style>
  </defs>
  <g transform="translate(18 44)">
    <path class="green" d="M0 50h36v8H0zM10 28h44v8H10zM18 72h44v8H18z"/>
    <path class="dark" d="M97 0h62c14 0 25 11 25 25v5h-34v-1c0-3-2-5-5-5H99c-17 0-30 13-30 30s13 30 30 30h46c3 0 5-2 5-5v-1h34v5c0 14-11 25-25 25H97c-35 0-63-24-63-54S62 0 97 0z"/>
    <path class="dark" d="M116 37h33l40 71h-37l-18-33h-31l13-22h6z"/>
    <path class="green" d="M194 0h80l-19 28h-61c-6 0-10 4-10 9s4 9 10 9h35c28 0 48 13 48 34 0 19-17 28-39 28h-72l19-28h52c6 0 10-4 10-9s-4-9-10-9h-35c-29 0-48-13-48-34 0-19 17-28 40-28z"/>
  </g>
  <path class="line" d="M324 29v122"/>
  <g transform="translate(360 31)">
    <text x="0" y="55" font-family="Inter, Arial, sans-serif" font-weight="800" font-size="54" letter-spacing="0">
      <tspan class="dark">Quick</tspan><tspan class="green">Serve</tspan>
    </text>
    <text x="2" y="108" class="muted" font-family="Inter, Arial, sans-serif" font-weight="500" font-size="25" letter-spacing="13">CASHLOAN</text>
  </g>
</svg>
