<svg xmlns="http://www.w3.org/2000/svg" viewBox="0 0 512 512">
  <rect width="512" height="512" fill="#053437"/>
  <g transform="translate(55.55 77.82) scale(3.7120)">
  <path d="M14 43h19v5H14zM19 31h25v5H19zM24 55h25v5H24z" fill="#12b84f"/>
  <path d="M49 22h24c6.5 0 11.7 5.2 11.7 11.7v2.2H70v-.5c0-1.5-1.1-2.6-2.6-2.6H49.6c-8.7 0-15.2 6.6-15.2 15.2s6.5 15.2 15.2 15.2h17.8c1.5 0 2.6-1.1 2.6-2.6v-.5h14.7v2.2C84.7 68.8 79.5 74 73 74H49c-18.1 0-32.8-11.5-32.8-26S30.9 22 49 22z" fill="#fff"/>
  <path d="M56 42h16l18 32H73L65 59H51z" fill="#fff"/>
  <path d="M64 22h26L80 37H62c-3.2 0-5.1 1.8-5.1 4s1.9 4 5.1 4h12c12.6 0 20 6.4 20 15.3C94 69 86.2 74 75 74H52l9.8-15h14.1c3.1 0 5.1-1.7 5.1-4s-2-4-5.1-4H64c-12.7 0-20.1-6.3-20.1-15.2C43.9 27.1 51.7 22 64 22z" fill="#12b84f"/>
</g>
</svg>
